<svg xmlns="http://www.w3.org/2000/svg" xmlns:xlink="http://www.w3.org/1999/xlink" width="850" zoomAndPan="magnify" viewBox="0 0 637.5 637.499985" height="850" preserveAspectRatio="xMidYMid meet" version="1.2"><defs><clipPath id="20e662e770"><path d="M 0 0 L 637 0 L 637 637 L 0 637 Z M 0 0 "/></clipPath></defs><g id="e17f09b452"><g clip-rule="nonzero" clip-path="url(#20e662e770)"><path style=" stroke:none;fill-rule:nonzero;fill:#a1a1a3;fill-opacity:1;" d="M 637.015625 318.5 C 637.015625 323.710938 636.886719 328.921875 636.632812 334.128906 C 636.375 339.335938 635.992188 344.53125 635.480469 349.71875 C 634.96875 354.90625 634.332031 360.078125 633.566406 365.234375 C 632.804688 370.390625 631.910156 375.523438 630.894531 380.636719 C 629.878906 385.75 628.738281 390.832031 627.46875 395.890625 C 626.203125 400.945312 624.8125 405.96875 623.300781 410.957031 C 621.789062 415.945312 620.152344 420.890625 618.398438 425.800781 C 616.640625 430.707031 614.765625 435.570312 612.769531 440.386719 C 610.777344 445.199219 608.664062 449.964844 606.433594 454.675781 C 604.207031 459.386719 601.863281 464.042969 599.40625 468.640625 C 596.949219 473.238281 594.382812 477.769531 591.703125 482.242188 C 589.023438 486.710938 586.234375 491.117188 583.339844 495.449219 C 580.441406 499.785156 577.441406 504.042969 574.335938 508.230469 C 571.230469 512.417969 568.027344 516.523438 564.71875 520.554688 C 561.410156 524.582031 558.007812 528.53125 554.507812 532.390625 C 551.007812 536.253906 547.414062 540.027344 543.726562 543.714844 C 540.042969 547.398438 536.269531 550.992188 532.40625 554.492188 C 528.542969 557.992188 524.597656 561.398438 520.570312 564.703125 C 516.539062 568.011719 512.433594 571.21875 508.246094 574.320312 C 504.058594 577.425781 499.796875 580.425781 495.464844 583.324219 C 491.128906 586.21875 486.726562 589.007812 482.257812 591.6875 C 477.785156 594.367188 473.25 596.933594 468.65625 599.390625 C 464.058594 601.847656 459.402344 604.191406 454.691406 606.421875 C 449.980469 608.648438 445.214844 610.761719 440.398438 612.757812 C 435.582031 614.75 430.722656 616.625 425.8125 618.382812 C 420.90625 620.136719 415.957031 621.773438 410.96875 623.285156 C 405.984375 624.800781 400.960938 626.1875 395.902344 627.457031 C 390.847656 628.722656 385.761719 629.863281 380.652344 630.878906 C 375.539062 631.898438 370.40625 632.789062 365.25 633.554688 C 360.09375 634.316406 354.921875 634.957031 349.734375 635.464844 C 344.546875 635.976562 339.347656 636.359375 334.144531 636.617188 C 328.9375 636.871094 323.726562 637 318.515625 637 C 313.300781 637 308.09375 636.871094 302.886719 636.617188 C 297.679688 636.359375 292.484375 635.976562 287.296875 635.464844 C 282.109375 634.957031 276.9375 634.316406 271.78125 633.554688 C 266.625 632.789062 261.492188 631.898438 256.378906 630.878906 C 251.265625 629.863281 246.183594 628.722656 241.125 627.457031 C 236.070312 626.1875 231.046875 624.800781 226.058594 623.285156 C 221.070312 621.773438 216.125 620.136719 211.214844 618.382812 C 206.308594 616.625 201.445312 614.75 196.628906 612.757812 C 191.8125 610.761719 187.050781 608.648438 182.339844 606.421875 C 177.625 604.191406 172.972656 601.847656 168.375 599.390625 C 163.777344 596.933594 159.242188 594.367188 154.773438 591.6875 C 150.300781 589.007812 145.898438 586.21875 141.566406 583.324219 C 137.230469 580.425781 132.972656 577.425781 128.785156 574.320312 C 124.597656 571.21875 120.488281 568.011719 116.460938 564.703125 C 112.429688 561.398438 108.484375 557.992188 104.625 554.492188 C 100.761719 550.992188 96.988281 547.398438 93.300781 543.714844 C 89.617188 540.027344 86.023438 536.253906 82.523438 532.390625 C 79.019531 528.53125 75.617188 524.582031 72.3125 520.554688 C 69.003906 516.523438 65.796875 512.417969 62.691406 508.230469 C 59.589844 504.042969 56.585938 499.785156 53.691406 495.449219 C 50.796875 491.117188 48.007812 486.710938 45.328125 482.242188 C 42.648438 477.769531 40.078125 473.238281 37.621094 468.640625 C 35.164062 464.042969 32.824219 459.386719 30.59375 454.675781 C 28.367188 449.964844 26.253906 445.199219 24.257812 440.386719 C 22.265625 435.570312 20.390625 430.707031 18.632812 425.800781 C 16.875 420.890625 15.242188 415.945312 13.730469 410.957031 C 12.214844 405.96875 10.828125 400.945312 9.558594 395.890625 C 8.292969 390.832031 7.152344 385.75 6.132812 380.636719 C 5.117188 375.523438 4.226562 370.390625 3.460938 365.234375 C 2.695312 360.078125 2.058594 354.90625 1.546875 349.71875 C 1.039062 344.53125 0.652344 339.335938 0.398438 334.128906 C 0.140625 328.921875 0.015625 323.710938 0.015625 318.5 C 0.015625 313.289062 0.140625 308.078125 0.398438 302.871094 C 0.652344 297.664062 1.039062 292.46875 1.546875 287.28125 C 2.058594 282.09375 2.695312 276.921875 3.460938 271.765625 C 4.226562 266.609375 5.117188 261.476562 6.132812 256.363281 C 7.152344 251.25 8.292969 246.167969 9.558594 241.109375 C 10.828125 236.054688 12.214844 231.03125 13.730469 226.042969 C 15.242188 221.054688 16.875 216.109375 18.632812 211.199219 C 20.390625 206.292969 22.265625 201.429688 24.257812 196.617188 C 26.253906 191.800781 28.367188 187.035156 30.59375 182.324219 C 32.824219 177.613281 35.164062 172.957031 37.621094 168.359375 C 40.078125 163.761719 42.648438 159.230469 45.328125 154.757812 C 48.007812 150.289062 50.796875 145.886719 53.691406 141.550781 C 56.585938 137.21875 59.589844 132.957031 62.691406 128.769531 C 65.796875 124.582031 69.003906 120.476562 72.3125 116.445312 C 75.617188 112.417969 79.019531 108.472656 82.523438 104.609375 C 86.023438 100.746094 89.617188 96.972656 93.300781 93.285156 C 96.988281 89.601562 100.761719 86.007812 104.625 82.507812 C 108.484375 79.007812 112.429688 75.601562 116.460938 72.296875 C 120.488281 68.988281 124.597656 65.785156 128.785156 62.679688 C 132.972656 59.574219 137.230469 56.574219 141.566406 53.675781 C 145.898438 50.78125 150.300781 47.992188 154.773438 45.3125 C 159.242188 42.632812 163.777344 40.066406 168.375 37.609375 C 172.972656 35.152344 177.625 32.808594 182.339844 30.578125 C 187.050781 28.351562 191.8125 26.238281 196.628906 24.246094 C 201.445312 22.25 206.308594 20.375 211.214844 18.617188 C 216.125 16.863281 221.070312 15.226562 226.058594 13.714844 C 231.046875 12.203125 236.070312 10.8125 241.125 9.546875 C 246.183594 8.277344 251.265625 7.136719 256.378906 6.121094 C 261.492188 5.101562 266.625 4.210938 271.78125 3.449219 C 276.9375 2.683594 282.109375 2.042969 287.296875 1.535156 C 292.484375 1.023438 297.679688 0.640625 302.886719 0.382812 C 308.09375 0.128906 313.300781 0 318.515625 0 C 323.726562 0 328.9375 0.128906 334.144531 0.382812 C 339.347656 0.640625 344.546875 1.023438 349.734375 1.535156 C 354.921875 2.042969 360.09375 2.683594 365.25 3.449219 C 370.40625 4.210938 375.539062 5.101562 380.652344 6.121094 C 385.761719 7.136719 390.847656 8.277344 395.902344 9.546875 C 400.960938 10.8125 405.984375 12.203125 410.96875 13.714844 C 415.957031 15.226562 420.90625 16.863281 425.8125 18.617188 C 430.722656 20.375 435.582031 22.25 440.398438 24.246094 C 445.214844 26.238281 449.980469 28.351562 454.691406 30.578125 C 459.402344 32.808594 464.058594 35.152344 468.65625 37.609375 C 473.25 40.066406 477.785156 42.632812 482.257812 45.3125 C 486.726562 47.992188 491.128906 50.78125 495.464844 53.675781 C 499.796875 56.574219 504.058594 59.574219 508.246094 62.679688 C 512.433594 65.785156 516.539062 68.988281 520.570312 72.296875 C 524.597656 75.601562 528.542969 79.007812 532.40625 82.507812 C 536.269531 86.007812 540.042969 89.601562 543.726562 93.285156 C 547.414062 96.972656 551.007812 100.746094 554.507812 104.609375 C 558.007812 108.472656 561.410156 112.417969 564.71875 116.445312 C 568.027344 120.476562 571.230469 124.582031 574.335938 128.769531 C 577.441406 132.957031 580.441406 137.21875 583.339844 141.550781 C 586.234375 145.886719 589.023438 150.289062 591.703125 154.757812 C 594.382812 159.230469 596.949219 163.761719 599.40625 168.359375 C 601.863281 172.957031 604.207031 177.613281 606.433594 182.324219 C 608.664062 187.035156 610.777344 191.800781 612.769531 196.617188 C 614.765625 201.429688 616.640625 206.292969 618.398438 211.199219 C 620.152344 216.109375 621.789062 221.054688 623.300781 226.042969 C 624.8125 231.03125 626.203125 236.054688 627.46875 241.109375 C 628.738281 246.167969 629.878906 251.25 630.894531 256.363281 C 631.910156 261.476562 632.804688 266.609375 633.566406 271.765625 C 634.332031 276.921875 634.96875 282.09375 635.480469 287.28125 C 635.992188 292.46875 636.375 297.664062 636.632812 302.871094 C 636.886719 308.078125 637.015625 313.289062 637.015625 318.5 Z M 637.015625 318.5 "/></g><path style=" stroke:none;fill-rule:nonzero;fill:#ffffff;fill-opacity:1;" d="M 127.710938 202.410156 C 130.949219 200.265625 134.832031 199.015625 139.007812 199.015625 L 496.132812 199.015625 C 500.816406 199.015625 505.128906 200.585938 508.582031 203.230469 L 317.6875 306.835938 Z M 514.179688 427.21875 C 515.742188 424.324219 516.632812 421.007812 516.632812 417.484375 L 516.632812 222.023438 L 398.867188 284.816406 Z M 118.507812 220.621094 L 118.507812 417.484375 C 118.507812 419.296875 118.746094 421.054688 119.1875 422.726562 L 236.503906 284.828125 Z M 380.503906 295.113281 L 322.699219 327.527344 C 321.144531 328.398438 319.417969 328.835938 317.6875 328.835938 C 315.960938 328.835938 314.234375 328.398438 312.675781 327.527344 L 254.867188 295.121094 L 133.710938 437.292969 C 135.402344 437.742188 137.175781 437.984375 139.007812 437.984375 L 496.132812 437.984375 C 496.265625 437.984375 496.398438 437.980469 496.527344 437.976562 Z M 380.503906 295.113281 "/></g></svg>