<svg xmlns="http://www.w3.org/2000/svg" xmlns:xlink="http://www.w3.org/1999/xlink" width="850" zoomAndPan="magnify" viewBox="0 0 637.5 637.499985" height="850" preserveAspectRatio="xMidYMid meet" version="1.0"><defs><clipPath id="da16882378"><path d="M 0 104.308594 L 637 104.308594 L 637 532.972656 L 0 532.972656 Z M 0 104.308594 " clip-rule="nonzero"/></clipPath></defs><g clip-path="url(#da16882378)"><path fill="#999998" d="M 229.9375 300.605469 L 17.816406 524.414062 C 24.707031 529.296875 33.117188 532.1875 42.25 532.1875 L 594.75 532.1875 C 603.875 532.1875 612.292969 529.296875 619.183594 524.414062 L 407.0625 300.605469 L 325.585938 362.617188 C 321.398438 365.804688 315.59375 365.804688 311.410156 362.617188 Z M 632.78125 128.539062 L 425.664062 286.179688 L 633.882812 505.875 C 635.878906 500.960938 637 495.59375 637 489.9375 L 637 146.902344 C 637 140.296875 635.453125 134.089844 632.78125 128.539062 Z M 4.21875 128.527344 C 1.542969 134.082031 0 140.296875 0 146.902344 L 0 489.9375 C 0 495.59375 1.121094 500.960938 3.117188 505.875 L 211.34375 286.179688 Z M 42.25 104.652344 C 33.859375 104.652344 26.078125 107.101562 19.519531 111.285156 L 233.890625 274.453125 C 234.546875 274.777344 235.171875 275.160156 235.757812 275.601562 L 318.492188 338.582031 L 401.246094 275.601562 C 401.839844 275.15625 402.472656 274.769531 403.140625 274.441406 L 617.480469 111.296875 C 610.917969 107.109375 603.136719 104.652344 594.75 104.652344 L 42.25 104.652344 " fill-opacity="1" fill-rule="nonzero"/></g></svg>