<svg xmlns="http://www.w3.org/2000/svg" xmlns:xlink="http://www.w3.org/1999/xlink" width="850" zoomAndPan="magnify" viewBox="0 0 637.5 637.499985" height="850" preserveAspectRatio="xMidYMid meet" version="1.2"><defs><clipPath id="8c57925753"><path d="M 0 0 L 637 0 L 637 637 L 0 637 Z M 0 0 "/></clipPath></defs><g id="2424ae988e"><g clip-rule="nonzero" clip-path="url(#8c57925753)"><path style=" stroke:none;fill-rule:nonzero;fill:#bcbec0;fill-opacity:1;" d="M 318.507812 0.0117188 C 142.605469 0.0117188 0.0078125 142.609375 0.0078125 318.511719 C 0.0078125 494.414062 142.605469 637.011719 318.507812 637.011719 C 494.410156 637.011719 637.007812 494.414062 637.007812 318.511719 C 637.007812 142.609375 494.410156 0.0117188 318.507812 0.0117188 Z M 318.507812 612.886719 C 155.929688 612.886719 24.132812 481.089844 24.132812 318.511719 C 24.132812 155.933594 155.929688 24.136719 318.507812 24.136719 C 481.085938 24.136719 612.882812 155.933594 612.882812 318.511719 C 612.882812 481.089844 481.085938 612.886719 318.507812 612.886719 Z M 318.507812 612.886719 "/></g><path style=" stroke:none;fill-rule:nonzero;fill:#bcbec0;fill-opacity:1;" d="M 281.128906 474.632812 C 273.140625 475.398438 266.757812 476.277344 260.351562 476.582031 C 224.007812 478.296875 197.105469 463.972656 180.789062 430.5625 C 175.589844 419.921875 168.9375 409.882812 162.011719 400.242188 C 157.851562 394.453125 152.019531 389.804688 146.636719 384.980469 C 146.613281 384.960938 146.59375 384.945312 146.570312 384.921875 C 143.242188 381.992188 144.710938 376.515625 149.085938 375.777344 C 154.21875 374.914062 159.003906 375.84375 163.671875 377.03125 C 178.285156 380.75 187.664062 391.109375 195.136719 403.5 C 212.035156 431.515625 241.140625 443.203125 272.609375 434.855469 C 277.953125 433.4375 280.308594 431.140625 281.472656 425.3125 C 282.828125 418.515625 284.671875 411.816406 286.65625 404.988281 C 286.800781 404.488281 286.921875 403.980469 287.015625 403.464844 C 287.109375 402.953125 287.175781 402.433594 287.21875 401.914062 C 287.257812 401.394531 287.273438 400.871094 287.261719 400.347656 C 287.25 399.828125 287.214844 399.308594 287.148438 398.789062 C 287.085938 398.269531 286.996094 397.757812 286.878906 397.246094 C 286.761719 396.738281 286.621094 396.234375 286.453125 395.742188 C 286.285156 395.246094 286.09375 394.761719 285.878906 394.285156 C 285.660156 393.808594 285.421875 393.347656 285.160156 392.894531 C 284.894531 392.445312 284.609375 392.007812 284.300781 391.585938 C 283.996094 391.164062 283.667969 390.757812 283.316406 390.371094 C 282.96875 389.980469 282.601562 389.609375 282.214844 389.257812 C 281.828125 388.90625 281.425781 388.578125 281.007812 388.265625 C 280.585938 387.953125 280.152344 387.667969 279.703125 387.398438 C 279.253906 387.132812 278.792969 386.890625 278.320312 386.667969 C 277.84375 386.449219 277.359375 386.253906 276.867188 386.082031 C 276.375 385.914062 275.871094 385.769531 275.363281 385.648438 L 275.1875 385.605469 C 242.535156 377.792969 214.324219 363.246094 196.148438 333.40625 C 186.429688 317.449219 181.621094 299.871094 181.867188 281.558594 C 182.148438 260.78125 183.988281 239.960938 186.375 219.300781 C 188.054688 204.753906 194.792969 191.871094 205.25 181.410156 C 208.898438 177.765625 209.207031 174.707031 207.445312 169.988281 C 200.246094 150.65625 201.496094 131.289062 207.886719 111.917969 C 209.691406 106.449219 212.253906 105.667969 217.480469 107.316406 C 233.664062 112.410156 245.734375 122.9375 256.34375 135.546875 C 256.378906 135.589844 256.414062 135.632812 256.449219 135.675781 C 257.113281 136.46875 257.832031 137.214844 258.605469 137.902344 C 259.378906 138.589844 260.199219 139.21875 261.066406 139.785156 C 261.933594 140.351562 262.835938 140.851562 263.777344 141.285156 C 264.71875 141.714844 265.6875 142.078125 266.683594 142.363281 C 267.679688 142.652344 268.6875 142.863281 269.714844 143 C 270.742188 143.136719 271.773438 143.199219 272.808594 143.179688 C 273.84375 143.164062 274.875 143.070312 275.894531 142.902344 C 276.917969 142.730469 277.921875 142.484375 278.90625 142.164062 C 312.484375 131.152344 363.421875 131.007812 395.09375 141.90625 C 396.082031 142.242188 397.089844 142.5 398.117188 142.683594 C 399.148438 142.867188 400.183594 142.976562 401.226562 143.003906 C 402.273438 143.03125 403.3125 142.980469 404.347656 142.851562 C 405.386719 142.722656 406.40625 142.515625 407.414062 142.234375 C 408.417969 141.949219 409.398438 141.59375 410.347656 141.164062 C 411.300781 140.734375 412.214844 140.234375 413.09375 139.667969 C 413.96875 139.097656 414.796875 138.46875 415.582031 137.773438 C 416.363281 137.082031 417.089844 136.335938 417.757812 135.53125 L 417.859375 135.410156 C 428.484375 122.804688 440.609375 112.359375 456.78125 107.25 C 462.203125 105.535156 464.515625 106.839844 466.230469 112.117188 C 472.542969 131.496094 473.617188 150.753906 466.792969 170.28125 C 465.832031 173.03125 465.871094 177.8125 467.582031 179.550781 C 482.078125 194.257812 488.425781 212.511719 490.035156 232.292969 C 491.59375 251.398438 493.277344 270.835938 491.503906 289.8125 C 486.886719 339.164062 456.878906 367.90625 411.25 382.195312 C 407.347656 383.417969 403.378906 384.441406 399.332031 385.398438 C 398.804688 385.523438 398.289062 385.675781 397.78125 385.851562 C 397.269531 386.03125 396.769531 386.234375 396.285156 386.464844 C 395.796875 386.695312 395.320312 386.949219 394.859375 387.230469 C 394.398438 387.511719 393.953125 387.8125 393.523438 388.140625 C 393.09375 388.46875 392.683594 388.816406 392.289062 389.183594 C 391.898438 389.554688 391.523438 389.945312 391.171875 390.351562 C 390.820312 390.761719 390.492188 391.1875 390.183594 391.628906 C 389.875 392.074219 389.59375 392.53125 389.332031 393.003906 C 389.074219 393.476562 388.839844 393.964844 388.628906 394.460938 C 388.421875 394.957031 388.238281 395.464844 388.082031 395.980469 C 387.925781 396.496094 387.796875 397.019531 387.695312 397.550781 C 387.597656 398.082031 387.523438 398.613281 387.476562 399.152344 C 387.433594 399.691406 387.414062 400.226562 387.425781 400.769531 C 387.4375 401.308594 387.476562 401.84375 387.542969 402.378906 C 387.613281 402.914062 387.707031 403.445312 387.828125 403.96875 C 387.953125 404.496094 388.101562 405.011719 388.28125 405.523438 C 394.496094 423.535156 393.546875 442.777344 393.449219 461.898438 C 393.425781 466.292969 393.410156 470.6875 393.402344 475.089844 C 393.398438 476.902344 393.308594 478.714844 393.125 480.519531 C 392.945312 482.328125 392.675781 484.121094 392.316406 485.902344 C 391.960938 487.679688 391.515625 489.4375 390.984375 491.175781 C 390.457031 492.914062 389.84375 494.617188 389.144531 496.296875 C 388.445312 497.972656 387.667969 499.609375 386.8125 501.210938 C 385.953125 502.808594 385.019531 504.363281 384.007812 505.871094 C 382.996094 507.378906 381.914062 508.835938 380.761719 510.238281 C 379.609375 511.640625 378.390625 512.980469 377.105469 514.261719 C 375.820312 515.546875 374.472656 516.761719 373.070312 517.914062 C 371.664062 519.0625 370.207031 520.140625 368.695312 521.148438 C 367.1875 522.15625 365.628906 523.089844 364.027344 523.945312 C 362.425781 524.796875 360.785156 525.574219 359.109375 526.265625 C 357.429688 526.960938 355.722656 527.570312 353.984375 528.097656 C 352.25 528.625 350.488281 529.0625 348.707031 529.417969 C 346.925781 529.769531 345.132812 530.035156 343.328125 530.214844 C 341.519531 530.390625 339.707031 530.480469 337.894531 530.480469 L 336.640625 530.480469 C 334.824219 530.480469 333.011719 530.390625 331.199219 530.214844 C 329.390625 530.035156 327.59375 529.769531 325.8125 529.414062 C 324.027344 529.058594 322.265625 528.617188 320.527344 528.089844 C 318.789062 527.5625 317.078125 526.949219 315.398438 526.253906 C 313.71875 525.558594 312.078125 524.78125 310.472656 523.925781 C 308.871094 523.070312 307.3125 522.136719 305.800781 521.125 C 304.289062 520.113281 302.828125 519.03125 301.425781 517.878906 C 300.019531 516.726562 298.671875 515.507812 297.386719 514.222656 C 296.101562 512.933594 294.882812 511.589844 293.730469 510.183594 C 292.574219 508.777344 291.492188 507.320312 290.484375 505.808594 C 289.472656 504.296875 288.539062 502.738281 287.683594 501.136719 C 286.824219 499.53125 286.050781 497.890625 285.351562 496.210938 C 284.65625 494.53125 284.046875 492.820312 283.519531 491.082031 C 282.988281 489.339844 282.550781 487.578125 282.195312 485.796875 C 281.839844 484.011719 281.574219 482.214844 281.394531 480.40625 C 281.214844 478.597656 281.128906 476.785156 281.128906 474.964844 Z M 281.128906 474.632812 "/></g></svg>