<svg xmlns="http://www.w3.org/2000/svg" xmlns:xlink="http://www.w3.org/1999/xlink" width="850" zoomAndPan="magnify" viewBox="0 0 637.5 637.499985" height="850" preserveAspectRatio="xMidYMid meet" version="1.2"><defs><clipPath id="76e9af3f32"><path d="M 5.953125 5.953125 L 630.960938 5.953125 L 630.960938 630.960938 L 5.953125 630.960938 Z M 5.953125 5.953125 "/></clipPath></defs><g id="23a348e87f"><g clip-rule="nonzero" clip-path="url(#76e9af3f32)"><path style=" stroke:none;fill-rule:nonzero;fill:#a1a1a3;fill-opacity:1;" d="M 318.457031 5.953125 C 145.867188 5.953125 5.953125 145.867188 5.953125 318.457031 C 5.953125 491.046875 145.867188 630.960938 318.457031 630.960938 C 491.046875 630.960938 630.960938 491.046875 630.960938 318.457031 C 630.960938 145.867188 491.046875 5.953125 318.457031 5.953125 Z M 318.457031 607.292969 C 158.9375 607.292969 29.621094 477.976562 29.621094 318.457031 C 29.621094 158.9375 158.9375 29.621094 318.457031 29.621094 C 477.976562 29.621094 607.292969 158.9375 607.292969 318.457031 C 607.292969 477.976562 477.976562 607.292969 318.457031 607.292969 Z M 318.457031 607.292969 "/></g><path style=" stroke:none;fill-rule:nonzero;fill:#a1a1a3;fill-opacity:1;" d="M 281.78125 471.636719 C 273.941406 472.390625 267.679688 473.253906 261.394531 473.550781 C 225.734375 475.234375 199.335938 461.175781 183.328125 428.398438 C 178.230469 417.960938 171.703125 408.105469 164.90625 398.648438 C 160.824219 392.96875 155.105469 388.40625 149.820312 383.675781 L 149.757812 383.617188 C 146.492188 380.742188 147.933594 375.367188 152.222656 374.644531 C 157.261719 373.800781 161.957031 374.710938 166.535156 375.875 C 180.871094 379.523438 190.074219 389.6875 197.40625 401.84375 C 213.988281 429.335938 242.546875 440.804688 273.425781 432.613281 C 278.667969 431.222656 280.976562 428.964844 282.117188 423.246094 C 283.449219 416.578125 285.257812 410.003906 287.203125 403.304688 C 287.347656 402.8125 287.464844 402.316406 287.554688 401.8125 C 287.648438 401.308594 287.714844 400.800781 287.753906 400.289062 C 287.796875 399.777344 287.8125 399.265625 287.800781 398.753906 C 287.789062 398.242188 287.75 397.730469 287.6875 397.222656 C 287.625 396.714844 287.539062 396.210938 287.421875 395.710938 C 287.308594 395.210938 287.171875 394.71875 287.007812 394.230469 C 286.84375 393.746094 286.652344 393.269531 286.441406 392.804688 C 286.230469 392.339844 285.996094 391.882812 285.734375 391.441406 C 285.476562 391 285.199219 390.570312 284.894531 390.15625 C 284.59375 389.742188 284.273438 389.34375 283.929688 388.960938 C 283.585938 388.582031 283.226562 388.21875 282.847656 387.871094 C 282.46875 387.527344 282.074219 387.203125 281.660156 386.898438 C 281.25 386.59375 280.824219 386.308594 280.382812 386.046875 C 279.941406 385.785156 279.488281 385.546875 279.023438 385.332031 C 278.558594 385.117188 278.085938 384.925781 277.601562 384.757812 C 277.117188 384.589844 276.625 384.445312 276.125 384.328125 L 275.953125 384.289062 C 243.914062 376.621094 216.234375 362.347656 198.402344 333.070312 C 188.863281 317.414062 184.148438 300.167969 184.390625 282.199219 C 184.664062 261.8125 186.46875 241.382812 188.808594 221.113281 C 190.460938 206.839844 197.070312 194.199219 207.332031 183.9375 C 210.910156 180.359375 211.210938 177.359375 209.484375 172.726562 C 202.421875 153.761719 203.648438 134.757812 209.917969 115.75 C 211.691406 110.386719 214.203125 109.621094 219.332031 111.234375 C 235.210938 116.234375 247.050781 126.5625 257.460938 138.933594 L 257.566406 139.0625 C 258.21875 139.84375 258.921875 140.570312 259.679688 141.246094 C 260.441406 141.921875 261.246094 142.539062 262.097656 143.09375 C 262.945312 143.652344 263.832031 144.140625 264.757812 144.566406 C 265.679688 144.988281 266.632812 145.34375 267.609375 145.625 C 268.585938 145.90625 269.578125 146.113281 270.582031 146.25 C 271.589844 146.382812 272.601562 146.441406 273.621094 146.425781 C 274.636719 146.410156 275.644531 146.316406 276.648438 146.152344 C 277.648438 145.984375 278.636719 145.742188 279.601562 145.429688 C 312.546875 134.625 362.527344 134.480469 393.601562 145.175781 C 394.570312 145.503906 395.558594 145.757812 396.570312 145.9375 C 397.578125 146.121094 398.59375 146.222656 399.621094 146.25 C 400.644531 146.277344 401.664062 146.230469 402.683594 146.101562 C 403.699219 145.976562 404.703125 145.773438 405.6875 145.496094 C 406.675781 145.21875 407.636719 144.867188 408.570312 144.445312 C 409.503906 144.023438 410.402344 143.535156 411.261719 142.976562 C 412.121094 142.421875 412.9375 141.800781 413.703125 141.121094 C 414.46875 140.441406 415.183594 139.707031 415.839844 138.921875 L 415.9375 138.800781 C 426.363281 126.433594 438.261719 116.183594 454.125 111.171875 C 459.449219 109.488281 461.714844 110.769531 463.402344 115.945312 C 469.589844 134.960938 470.648438 153.855469 463.949219 173.015625 C 463.007812 175.714844 463.046875 180.40625 464.722656 182.109375 C 478.949219 196.539062 485.175781 214.453125 486.757812 233.859375 C 488.285156 252.609375 489.9375 271.679688 488.195312 290.296875 C 483.667969 338.71875 454.226562 366.921875 409.453125 380.941406 C 405.625 382.140625 401.730469 383.144531 397.757812 384.085938 C 397.242188 384.207031 396.734375 384.355469 396.238281 384.53125 C 395.738281 384.703125 395.246094 384.90625 394.769531 385.128906 C 394.289062 385.355469 393.824219 385.605469 393.371094 385.882812 C 392.917969 386.15625 392.484375 386.453125 392.0625 386.773438 C 391.640625 387.09375 391.238281 387.4375 390.851562 387.800781 C 390.464844 388.164062 390.101562 388.542969 389.753906 388.945312 C 389.410156 389.347656 389.085938 389.765625 388.785156 390.199219 C 388.480469 390.632812 388.203125 391.082031 387.949219 391.546875 C 387.695312 392.011719 387.464844 392.488281 387.257812 392.976562 C 387.054688 393.464844 386.875 393.960938 386.722656 394.46875 C 386.570312 394.972656 386.441406 395.488281 386.34375 396.007812 C 386.246094 396.527344 386.171875 397.050781 386.128906 397.578125 C 386.085938 398.105469 386.066406 398.632812 386.078125 399.164062 C 386.089844 399.691406 386.128906 400.21875 386.195312 400.746094 C 386.261719 401.269531 386.351562 401.789062 386.472656 402.304688 C 386.59375 402.820312 386.742188 403.328125 386.914062 403.828125 C 393.015625 421.503906 392.082031 440.382812 391.988281 459.144531 C 391.964844 463.453125 391.953125 467.769531 391.941406 472.085938 C 391.9375 473.867188 391.847656 475.644531 391.671875 477.417969 C 391.492188 479.1875 391.226562 480.949219 390.875 482.695312 C 390.527344 484.441406 390.089844 486.167969 389.570312 487.871094 C 389.050781 489.574219 388.449219 491.25 387.761719 492.894531 C 387.078125 494.539062 386.316406 496.144531 385.472656 497.714844 C 384.632812 499.285156 383.714844 500.808594 382.722656 502.289062 C 381.730469 503.769531 380.667969 505.199219 379.539062 506.574219 C 378.40625 507.949219 377.210938 509.265625 375.949219 510.523438 C 374.6875 511.78125 373.367188 512.976562 371.988281 514.105469 C 370.609375 515.234375 369.179688 516.292969 367.699219 517.28125 C 366.214844 518.269531 364.691406 519.183594 363.117188 520.019531 C 361.546875 520.859375 359.9375 521.621094 358.292969 522.300781 C 356.644531 522.980469 354.96875 523.578125 353.265625 524.097656 C 351.558594 524.613281 349.832031 525.042969 348.085938 525.390625 C 346.339844 525.738281 344.578125 526 342.804688 526.171875 C 341.03125 526.347656 339.253906 526.433594 337.472656 526.433594 L 336.246094 526.433594 C 334.464844 526.433594 332.683594 526.347656 330.90625 526.171875 C 329.132812 525.996094 327.371094 525.734375 325.621094 525.386719 C 323.871094 525.039062 322.140625 524.605469 320.433594 524.089844 C 318.726562 523.570312 317.050781 522.96875 315.402344 522.289062 C 313.753906 521.605469 312.144531 520.84375 310.570312 520 C 308.996094 519.160156 307.46875 518.246094 305.984375 517.253906 C 304.503906 516.261719 303.070312 515.203125 301.691406 514.070312 C 300.3125 512.9375 298.992188 511.742188 297.730469 510.480469 C 296.46875 509.21875 295.273438 507.898438 294.140625 506.519531 C 293.007812 505.140625 291.949219 503.707031 290.957031 502.226562 C 289.964844 500.742188 289.050781 499.214844 288.210938 497.640625 C 287.367188 496.066406 286.605469 494.457031 285.921875 492.808594 C 285.242188 491.160156 284.640625 489.484375 284.121094 487.777344 C 283.605469 486.066406 283.171875 484.339844 282.824219 482.589844 C 282.476562 480.839844 282.214844 479.078125 282.039062 477.300781 C 281.863281 475.527344 281.777344 473.746094 281.777344 471.964844 Z M 281.78125 471.636719 "/></g></svg>